<svg class="style_themeListItemIcon__nBF8n" viewBox="0 0 32 32" xmlns="http://www.w3.org/2000/svg">
  <path d="M4.7335 25.32L6.6135 27.2L9.0135 24.8133L7.12016 22.92L4.7335 25.32ZM14.6668 30.5333C15.0935 30.5333 17.3335 30.5333 17.3335 30.5333V26.6H14.6668V30.5333ZM16.0002 7.93331C13.8784 7.93331 11.8436 8.77617 10.3433 10.2765C8.84302 11.7768 8.00016 13.8116 8.00016 15.9333C8.00016 18.055 8.84302 20.0899 10.3433 21.5902C11.8436 23.0905 13.8784 23.9333 16.0002 23.9333C18.1219 23.9333 20.1567 23.0905 21.657 21.5902C23.1573 20.0899 24.0002 18.055 24.0002 15.9333C24.0002 11.5066 20.4135 7.93331 16.0002 7.93331ZM26.6668 17.2666H30.6668V14.6H26.6668V17.2666ZM22.9868 24.8133L25.3868 27.2L27.2668 25.32L24.8802 22.92L22.9868 24.8133ZM27.2668 6.54665L25.3868 4.66665L22.9868 7.05331L24.8802 8.94665L27.2668 6.54665ZM17.3335 1.33331H14.6668V5.26665H17.3335V1.33331ZM5.3335 14.6H1.3335V17.2666H5.3335V14.6ZM9.0135 7.05331L6.6135 4.66665L4.7335 6.54665L7.12016 8.94665L9.0135 7.05331Z"></path>
</svg>